<?xml version="1.0" encoding="UTF-8"?>
<svg width="32" height="32" viewBox="0 0 32 32" fill="none" xmlns="http://www.w3.org/2000/svg">
  <defs>
    <radialGradient id="bulb-glow" cx="16" cy="16" r="16" gradientUnits="userSpaceOnUse">
      <stop offset="0.6" stop-color="#fde68a"/>
      <stop offset="1" stop-color="#fbbf24"/>
    </radialGradient>
    <linearGradient id="bulb-outline" x1="8" y1="8" x2="24" y2="24" gradientUnits="userSpaceOnUse">
      <stop stop-color="#2563eb"/>
      <stop offset="1" stop-color="#1e40af"/>
    </linearGradient>
  </defs>
  <circle cx="16" cy="16" r="16" fill="url(#bulb-glow)"/>
  <!-- Bulb outline -->
  <path d="M16 7a7 7 0 0 0-3 13v2.5a1 1 0 0 0 1 1h4a1 1 0 0 0 1-1V20A7 7 0 0 0 16 7z" stroke="url(#bulb-outline)" stroke-width="2" fill="none"/>
  <!-- Question mark filament -->
  <path d="M16 12c0-1.1.9-2 2-2s2 .9 2 2c0 1.5-2 1.25-2 3" stroke="#1e293b" stroke-width="1.3" stroke-linecap="round" fill="none"/>
  <circle cx="16" cy="18.2" r="0.7" fill="#1e293b"/>
  <!-- Bulb base -->
  <rect x="13.5" y="22" width="5" height="2" rx="1" fill="#2563eb"/>
  <rect x="14" y="24" width="4" height="1.2" rx="0.6" fill="#1e40af"/>
</svg> 